{"title":"Blood Father 2016 720p WEB-DL HEVC 2CH x265","uid":15680542,"size":542370912,"categoryP":"video","categoryS":"hd___movies","magnet":"?xt=urn:btih:6e009969e2288b73dfbd820a0145595702d17d04&amp;dn=Blood+Father+2016+720p+WEB-DL+HEVC+2CH+x265&amp;tr=udp%3A%2F%2Ftracker.leechers-paradise.org%3A6969&amp;tr=udp%3A%2F%2Fzer0day.ch%3A1337&amp;tr=udp%3A%2F%2Fopen.demonii.com%3A1337&amp;tr=udp%3A%2F%2Ftracker.coppersurfer.tk%3A6969&amp;tr=udp%3A%2F%2Fexodus.desync.com%3A6969","seeders":3,"leechers":0,"uploader":"nayhtut","files":1,"time":1472308836,"description":"[Screenshots]\r\n \nhttps://s15.postimg.org/g3omxervf/Blood_Father_2016_720p_WEB_DL_HEVC_2_CH_x265_006.jpg \nhttps://s15.postimg.org/tymxfvmaj/Blood_Father_2016_720p_WEB_DL_HEVC_2_CH_x265_008.jpg\r\n\r\nSource: Blood Father 2016 1080p WEB-DL DD5.1 H264-FGT (3.1 GB)\r\n\r\n__--__--__--__--__--__--__--__--__--__--__--__--__--\r\n\r\n\r\nComplete name                            : Blood.Father.2016.720p.WEB-DL.HEVC.2CH.x265.mkv\r\nFormat                                   : Matroska\r\nFormat version                           : Version 4 / Version 2\r\nFile size                                : 517 MiB\r\nDuration                                 : 1h 28mn\r\nOverall bit rate                         : 820 Kbps\r\nWriting application                      : Lavf57.25.100\r\nWriting library                          : Lavf57.25.100\r\n\r\nVideo\r\n\r\nID                                       : 1\r\nFormat                                   : V_MPEGH/ISO/HEVC\r\nCodec ID                                 : V_MPEGH/ISO/HEVC\r\nDuration                                 : 1h 28mn\r\nBit rate                                 : 611 Kbps\r\nWidth                                    : 1 280 pixels\r\nHeight                                   : 530 pixels\r\nDisplay aspect ratio                     : 2.40:1\r\nFrame rate                               : 25.000 fps\r\nBits/(Pixel*Frame)                       : 0.036\r\nStream size                              : 386 MiB (75%)\r\nWriting library                          : Lavc57.48.101 libx265\r\nLanguage                                 : English\r\nDefault                                  : Yes\r\nForced                                   : No\r\nDURATION                                 : 01:28:12.851000000\r\n\r\nAudio\r\n\r\nID                                       : 2\r\nFormat                                   : AC-3\r\nFormat/Info                              : Audio Coding 3\r\nMode extension                           : CM (complete main)\r\nFormat settings, Endianness              : Big\r\nCodec ID                                 : A_AC3\r\nDuration                                 : 1h 28mn\r\nBit rate mode                            : Constant\r\nBit rate                                 : 192 Kbps\r\nChannel(s)                               : 2 channels\r\nChannel positions                        : Front: L R\r\nSampling rate                            : 48.0 KHz\r\nBit depth                                : 16 bits\r\nCompression mode                         : Lossy\r\nStream size                              : 121 MiB (23%)\r\nWriting library                          : Lavc57.24.102 ac3\r\nLanguage                                 : English\r\nDefault                                  : Yes\r\nForced                                   : No\r\nDURATION                                 : 01:28:12.831000000\r\n\r\nText\r\n\r\nID                                       : 3\r\nFormat                                   : ASS\r\nCodec ID                                 : S_TEXT/ASS\r\nCodec ID/Info                            : Advanced Sub Station Alpha\r\nCompression mode                         : Lossless\r\nWriting library                          : Lavc57.48.101 ssa\r\nLanguage                                 : English\r\nDefault                                  : Yes\r\nForced                                   : No\r\nDURATION                                 : 01:22:13.078000000\r\n\r\nMenu\r\n\r\n00:00:00.000                             : :1\r\n00:01:08.000                             : :2\r\n00:10:19.000                             : :3\r\n00:19:57.000                             : :4\r\n00:28:58.000                             : :5\r\n00:38:44.000                             : :6\r\n00:48:47.000                             : :7\r\n00:57:47.000                             : :8\r\n01:07:52.000                             : :9\r\n01:14:47.000                             : :10\r\n01:22:13.000                             : :11\r\n\r\n__--__--__--__--__--__--__--__--__--__--__--__--__--\r\n\r\n\r\nIMDb: http://www.imdb.com/title/tt3647498\r\n\r\n\r\n__--__--__--__--__--__--__--__--__--__--__--__--__--\r\n\r\n\r\nAfter adding torrent with magnet link,\r\n\r\nplease add this  following trackers list to the torrent for better seeds.\r\n\r\n\r\nudp://tracker.coppersurfer.tk:6969/announce\r\n\r\nudp://tracker.opentrackr.org:1337/announce\r\n \nhttp://tracker.baravik.org:6970/announce\r\n \nhttp://tracker2.wasabii.com.tw:6969/announce\r\n\r\nudp://9.rarbg.me:2710/announce\r\n\r\n\r\n__--__--__--__--__--__--__--__--__--__--__--__--__--\r\n\r\n\r\nEnjoy!","torrent":{"xt":"urn:btih:6e009969e2288b73dfbd820a0145595702d17d04","amp;dn":"Blood+Father+2016+720p+WEB-DL+HEVC+2CH+x265","amp;tr":["udp%3A%2F%2Ftracker.leechers-paradise.org%3A6969","udp%3A%2F%2Fzer0day.ch%3A1337","udp%3A%2F%2Fopen.demonii.com%3A1337","udp%3A%2F%2Ftracker.coppersurfer.tk%3A6969","udp%3A%2F%2Fexodus.desync.com%3A6969"],"infoHash":"6e009969e2288b73dfbd820a0145595702d17d04","infoHashBuffer":{"type":"Buffer","data":[110,0,153,105,226,40,139,115,223,189,130,10,1,69,89,87,2,209,125,4]},"announce":[],"urlList":[]}}